<?xml version="1.0" encoding="UTF-8" standalone="no"?><!DOCTYPE svg PUBLIC "-//W3C//DTD SVG 1.1//EN" "http://www.w3.org/Graphics/SVG/1.1/DTD/svg11.dtd"><svg width="100%" height="100%" viewBox="0 0 111 112" version="1.1" xmlns="http://www.w3.org/2000/svg" xmlns:xlink="http://www.w3.org/1999/xlink" xml:space="preserve" xmlns:serif="http://www.serif.com/" style="fill-rule:evenodd;clip-rule:evenodd;stroke-linecap:round;stroke-linejoin:round;stroke-miterlimit:1.5;"><g><g><path d="M14.614,21.503c0,0 1.635,-9.108 11.21,-10.276c9.575,-1.168 8.641,-2.802 11.911,-6.306c3.27,-3.503 5.839,-5.138 14.246,-3.036c8.407,2.102 10.509,3.503 23.821,4.904c13.312,1.401 17.983,7.94 21.486,15.18c3.503,7.24 3.036,7.473 7.707,14.48c4.671,7.006 7.006,21.588 3.27,25.624c-3.737,4.036 -4.904,11.976 -3.737,15.48c1.168,3.503 -0.934,18.216 -17.282,21.252c-16.348,3.036 -14.713,5.605 -17.516,7.473c-2.802,1.868 -15.647,8.641 -33.63,-1.635c-17.983,-10.276 -7.473,-3.97 -14.246,-7.707c-6.773,-3.737 -10.509,-5.605 -11.677,-17.983c-1.868,-7.94 -3.27,-12.042 -5.605,-16.881c-2.335,-4.838 -7.94,-13.246 1.635,-26.324c9.575,-13.078 3.97,-4.904 8.407,-14.246Z" style="fill:#f9ce30;stroke:#ab9850;stroke-width:1.5px;"/><circle cx="55.462" cy="55.575" r="44.45" style="fill:none;stroke:#ab9850;stroke-width:2.2px;"/></g></g></svg>