<?xml version="1.0" encoding="UTF-8" standalone="no"?><!DOCTYPE svg PUBLIC "-//W3C//DTD SVG 1.1//EN" "http://www.w3.org/Graphics/SVG/1.1/DTD/svg11.dtd"><svg width="100%" height="100%" viewBox="0 0 150 108" version="1.1" xmlns="http://www.w3.org/2000/svg" xmlns:xlink="http://www.w3.org/1999/xlink" xml:space="preserve" xmlns:serif="http://www.serif.com/" style="fill-rule:evenodd;clip-rule:evenodd;stroke-linecap:round;stroke-linejoin:round;stroke-miterlimit:1.5;"><g><g><path d="M13.921,9.361c0,0 71.556,-13.902 123.492,2.071" style="fill:none;stroke:#000;stroke-width:2.2px;"/><path d="M136.04,12.17c0,0 -19.544,39.432 0.544,88.277c1.19,1.557 2.17,1.057 3.699,-1.378c1.529,-2.435 18.086,-35.294 0.565,-86.247c-2.409,-1.878 -4.808,-0.652 -4.808,-0.652Z" style="fill:none;stroke:#000;stroke-width:2.2px;"/><path d="M14.078,9.361c0,0 69.363,-12.792 125.783,3.421c19.325,45.72 2.296,79.442 -1.414,88.378c-32.373,1.686 -83.293,2.192 -122.916,-2.023c-24.786,-22.256 -11.167,-79.322 -1.453,-89.776Z" style="fill:#a87e01;"/><path d="M137.873,101.636c0,0 -63.301,5.5 -122.864,-2.269c-19.132,-9.842 -17.164,-73.398 -1.088,-90.006" style="fill:none;stroke:#000;stroke-width:2.2px;"/><g opacity="0.56"><path d="M8.792,16.087c0,0 64.296,-9.305 123.568,3.313" style="fill:none;stroke:#000;stroke-width:0.7px;"/><path d="M6.57,23.979c0,0 83.539,-4.138 125.116,4.551" style="fill:none;stroke:#000;stroke-width:0.7px;"/><path d="M128.776,45.551c0,0 -104.484,-7.525 -126.695,-3.731" style="fill:none;stroke:#000;stroke-width:0.7px;"/><path d="M1.326,52.044c0,0 88.733,4.887 126.556,5.618" style="fill:none;stroke:#000;stroke-width:0.7px;"/><path d="M128.688,69.149c0,0 -97.984,-1.237 -128.244,-5.157" style="fill:none;stroke:#000;stroke-width:0.7px;"/><path d="M2.926,73.355c0,0 72.432,9.28 125.102,4.737" style="fill:none;stroke:#000;stroke-width:0.7px;"/><path d="M133.86,93.885c0,0 -61.05,7.296 -126.928,-3.748" style="fill:none;stroke:#000;stroke-width:0.7px;"/></g><path d="M54.216,4.748c0.026,2.011 -25.097,25.297 -5.345,97.805" style="fill:none;stroke:#b1b1b1;stroke-width:6.9px;stroke-linecap:butt;stroke-miterlimit:5;"/><path d="M83.911,3.457c0.058,2.489 -27.692,38.488 -6.807,95.419c0.716,1.953 1.671,-0.553 1.551,4.226" style="fill:none;stroke:#b1b1b1;stroke-width:6.9px;stroke-linecap:butt;stroke-miterlimit:5;"/><path d="M112.791,5.589c-0.331,3.473 -26.278,28.6 -3.853,97.885" style="fill:none;stroke:#b1b1b1;stroke-width:6.9px;stroke-linecap:butt;stroke-miterlimit:5;"/><path d="M133.032,10.565c0,0 -20.011,39.896 -2.248,86.797c0.164,0.434 1.859,4.237 1.983,5.622" style="fill:none;stroke:#b1b1b1;stroke-width:8px;stroke-linecap:butt;stroke-miterlimit:5;"/><path d="M29.082,7.693c0.138,1.567 -24.372,28.21 -4.993,87.27c0.635,1.936 1.61,1.979 1.751,5.889" style="fill:none;stroke:#b1b1b1;stroke-width:6.9px;stroke-linecap:butt;stroke-miterlimit:5;"/><g><path d="M13.921,9.361c0,0 71.556,-13.902 123.492,2.071" style="fill:none;stroke:#000;stroke-width:2.2px;"/><path d="M136.04,12.17c0,0 -19.544,39.432 0.544,88.277c1.19,1.557 2.17,1.057 3.699,-1.378c1.529,-2.435 18.086,-35.294 0.565,-86.247c-2.409,-1.878 -4.808,-0.652 -4.808,-0.652" style="fill:none;stroke:#000;stroke-width:2.2px;"/><path d="M137.873,101.636c0,0 -63.301,5.5 -122.864,-2.269c-19.132,-9.842 -17.164,-73.398 -1.088,-90.006" style="fill:none;stroke:#000;stroke-width:2.2px;"/></g></g></g></svg>